<svg xmlns="http://www.w3.org/2000/svg" width="400" height="300" viewBox="0 0 400 300">
  <rect width="100%" height="100%" fill="white"/>
  <text x="200" y="20" text-anchor="middle" font-size="14" font-weight="600" fill="#374151" font-family="monospace">cubic function</text>
  <line x1="40" y1="40" x2="360" y2="40" stroke="#e5e7eb" stroke-dasharray="3,3"/>
<line x1="40" y1="40" x2="40" y2="260" stroke="#e5e7eb" stroke-dasharray="3,3"/>
<line x1="40" y1="95" x2="360" y2="95" stroke="#e5e7eb" stroke-dasharray="3,3"/>
<line x1="120" y1="40" x2="120" y2="260" stroke="#e5e7eb" stroke-dasharray="3,3"/>
<line x1="40" y1="150" x2="360" y2="150" stroke="#e5e7eb" stroke-dasharray="3,3"/>
<line x1="200" y1="40" x2="200" y2="260" stroke="#e5e7eb" stroke-dasharray="3,3"/>
<line x1="40" y1="205" x2="360" y2="205" stroke="#e5e7eb" stroke-dasharray="3,3"/>
<line x1="280" y1="40" x2="280" y2="260" stroke="#e5e7eb" stroke-dasharray="3,3"/>
<line x1="40" y1="260" x2="360" y2="260" stroke="#e5e7eb" stroke-dasharray="3,3"/>
<line x1="360" y1="40" x2="360" y2="260" stroke="#e5e7eb" stroke-dasharray="3,3"/>

  <rect x="40" y="40" width="320" height="220" fill="none" stroke="#d1d5db"/>
  <path d="M40.000000,260.000000 L43.200000,253.531120 L46.400000,247.320960 L49.600000,241.364240 L52.800000,235.655680 L56.000000,230.190000 L59.200000,224.961920 L62.400000,219.966160 L65.600000,215.197440 L68.800000,210.650480 L72.000000,206.320000 L75.200000,202.200720 L78.400000,198.287360 L81.600000,194.574640 L84.800000,191.057280 L88.000000,187.730000 L91.200000,184.587520 L94.400000,181.624560 L97.600000,178.835840 L100.800000,176.216080 L104.000000,173.760000 L107.200000,171.462320 L110.400000,169.317760 L113.600000,167.321040 L116.800000,165.466880 L120.000000,163.750000 L123.200000,162.165120 L126.400000,160.706960 L129.600000,159.370240 L132.800000,158.149680 L136.000000,157.040000 L139.200000,156.035920 L142.400000,155.132160 L145.600000,154.323440 L148.800000,153.604480 L152.000000,152.970000 L155.200000,152.414720 L158.400000,151.933360 L161.600000,151.520640 L164.800000,151.171280 L168.000000,150.880000 L171.200000,150.641520 L174.400000,150.450560 L177.600000,150.301840 L180.800000,150.190080 L184.000000,150.110000 L187.200000,150.056320 L190.400000,150.023760 L193.600000,150.007040 L196.800000,150.000880 L200.000000,150.000000 L203.200000,149.999120 L206.400000,149.992960 L209.600000,149.976240 L212.800000,149.943680 L216.000000,149.890000 L219.200000,149.809920 L222.400000,149.698160 L225.600000,149.549440 L228.800000,149.358480 L232.000000,149.120000 L235.200000,148.828720 L238.400000,148.479360 L241.600000,148.066640 L244.800000,147.585280 L248.000000,147.030000 L251.200000,146.395520 L254.400000,145.676560 L257.600000,144.867840 L260.800000,143.964080 L264.000000,142.960000 L267.200000,141.850320 L270.400000,140.629760 L273.600000,139.293040 L276.800000,137.834880 L280.000000,136.250000 L283.200000,134.533120 L286.400000,132.678960 L289.600000,130.682240 L292.800000,128.537680 L296.000000,126.240000 L299.200000,123.783920 L302.400000,121.164160 L305.600000,118.375440 L308.800000,115.412480 L312.000000,112.270000 L315.200000,108.942720 L318.400000,105.425360 L321.600000,101.712640 L324.800000,97.799280 L328.000000,93.680000 L331.200000,89.349520 L334.400000,84.802560 L337.600000,80.033840 L340.800000,75.038080 L344.000000,69.810000 L347.200000,64.344320 L350.400000,58.635760 L353.600000,52.679040 L356.800000,46.468880 L360.000000,40.000000 " fill="none" stroke="#0891b2" stroke-width="2"/>
  <text x="200.000000" y="295.000000" text-anchor="middle" font-size="12" fill="#666">x</text>
<text x="15" y="150.000000" text-anchor="middle" font-size="12" fill="#666" transform="rotate(-90,15,150.000000)">y</text>
</svg>