<svg xmlns="http://www.w3.org/2000/svg" width="400" height="300" viewBox="0 0 400 300">
  <rect width="100%" height="100%" fill="white"/>
  <text x="200" y="20" text-anchor="middle" font-size="14" font-weight="600" fill="#374151" font-family="monospace">damped oscillation</text>
  <line x1="40" y1="40" x2="360" y2="40" stroke="#e5e7eb" stroke-dasharray="3,3"/>
<line x1="40" y1="40" x2="40" y2="260" stroke="#e5e7eb" stroke-dasharray="3,3"/>
<line x1="40" y1="95" x2="360" y2="95" stroke="#e5e7eb" stroke-dasharray="3,3"/>
<line x1="120" y1="40" x2="120" y2="260" stroke="#e5e7eb" stroke-dasharray="3,3"/>
<line x1="40" y1="150" x2="360" y2="150" stroke="#e5e7eb" stroke-dasharray="3,3"/>
<line x1="200" y1="40" x2="200" y2="260" stroke="#e5e7eb" stroke-dasharray="3,3"/>
<line x1="40" y1="205" x2="360" y2="205" stroke="#e5e7eb" stroke-dasharray="3,3"/>
<line x1="280" y1="40" x2="280" y2="260" stroke="#e5e7eb" stroke-dasharray="3,3"/>
<line x1="40" y1="260" x2="360" y2="260" stroke="#e5e7eb" stroke-dasharray="3,3"/>
<line x1="360" y1="40" x2="360" y2="260" stroke="#e5e7eb" stroke-dasharray="3,3"/>

  <rect x="40" y="40" width="320" height="220" fill="none" stroke="#d1d5db"/>
  <path d="M40.000000,40.000000 L41.600000,42.519822 L43.200000,45.377970 L44.800000,48.556776 L46.400000,52.038230 L48.000000,55.804044 L49.600000,59.835707 L51.200000,64.114541 L52.800000,68.621756 L54.400000,73.338507 L56.000000,78.245941 L57.600000,83.325252 L59.200000,88.557726 L60.800000,93.924795 L62.400000,99.408075 L64.000000,104.989415 L65.600000,110.650937 L67.200000,116.375076 L68.800000,122.144619 L70.400000,127.942738 L72.000000,133.753028 L73.600000,139.559535 L75.200000,145.346785 L76.800000,151.099816 L78.400000,156.804197 L80.000000,162.446058 L81.600000,168.012103 L83.200000,173.489635 L84.800000,178.866567 L86.400000,184.131442 L88.000000,189.273441 L89.600000,194.282395 L91.200000,199.148792 L92.800000,203.863785 L94.400000,208.419194 L96.000000,212.807508 L97.600000,217.021888 L99.200000,221.056163 L100.800000,224.904830 L102.400000,228.563043 L104.000000,232.026613 L105.600000,235.291998 L107.200000,238.356289 L108.800000,241.217206 L110.400000,243.873081 L112.000000,246.322847 L113.600000,248.566018 L115.200000,250.602681 L116.800000,252.433473 L118.400000,254.059564 L120.000000,255.482640 L121.600000,256.704881 L123.200000,257.728943 L124.800000,258.557934 L126.400000,259.195394 L128.000000,259.645274 L129.600000,259.911909 L131.200000,260.000000 L132.800000,259.914587 L134.400000,259.661026 L136.000000,259.244969 L137.600000,258.672334 L139.200000,257.949286 L140.800000,257.082210 L142.400000,256.077691 L144.000000,254.942487 L145.600000,253.683506 L147.200000,252.307786 L148.800000,250.822470 L150.400000,249.234783 L152.000000,247.552011 L153.600000,245.781481 L155.200000,243.930540 L156.800000,242.006530 L158.400000,240.016776 L160.000000,237.968561 L161.600000,235.869110 L163.200000,233.725572 L164.800000,231.545004 L166.400000,229.334351 L168.000000,227.100436 L169.600000,224.849943 L171.200000,222.589401 L172.800000,220.325175 L174.400000,218.063450 L176.000000,215.810224 L177.600000,213.571291 L179.200000,211.352240 L180.800000,209.158437 L182.400000,206.995026 L184.000000,204.866913 L185.600000,202.778768 L187.200000,200.735014 L188.800000,198.739823 L190.400000,196.797117 L192.000000,194.910557 L193.600000,193.083548 L195.200000,191.319233 L196.800000,189.620494 L198.400000,187.989953 L200.000000,186.429971 L201.600000,184.942649 L203.200000,183.529831 L204.800000,182.193108 L206.400000,180.933818 L208.000000,179.753052 L209.600000,178.651659 L211.200000,177.630249 L212.800000,176.689200 L214.400000,175.828662 L216.000000,175.048566 L217.600000,174.348627 L219.200000,173.728355 L220.800000,173.187061 L222.400000,172.723863 L224.000000,172.337697 L225.600000,172.027321 L227.200000,171.791330 L228.800000,171.628158 L230.400000,171.536090 L232.000000,171.513274 L233.600000,171.557722 L235.200000,171.667328 L236.800000,171.839873 L238.400000,172.073032 L240.000000,172.364389 L241.600000,172.711441 L243.200000,173.111612 L244.800000,173.562256 L246.400000,174.060674 L248.000000,174.604115 L249.600000,175.189790 L251.200000,175.814879 L252.800000,176.476540 L254.400000,177.171915 L256.000000,177.898143 L257.600000,178.652361 L259.200000,179.431719 L260.800000,180.233382 L262.400000,181.054539 L264.000000,181.892410 L265.600000,182.744252 L267.200000,183.607367 L268.800000,184.479103 L270.400000,185.356867 L272.000000,186.238126 L273.600000,187.120409 L275.200000,188.001320 L276.800000,188.878534 L278.400000,189.749806 L280.000000,190.612974 L281.600000,191.465960 L283.200000,192.306776 L284.800000,193.133525 L286.400000,193.944403 L288.000000,194.737704 L289.600000,195.511817 L291.200000,196.265233 L292.800000,196.996540 L294.400000,197.704430 L296.000000,198.387694 L297.600000,199.045227 L299.200000,199.676024 L300.800000,200.279182 L302.400000,200.853900 L304.000000,201.399475 L305.600000,201.915304 L307.200000,202.400883 L308.800000,202.855801 L310.400000,203.279745 L312.000000,203.672491 L313.600000,204.033908 L315.200000,204.363952 L316.800000,204.662663 L318.400000,204.930167 L320.000000,205.166667 L321.600000,205.372445 L323.200000,205.547858 L324.800000,205.693330 L326.400000,205.809358 L328.000000,205.896499 L329.600000,205.955374 L331.200000,205.986660 L332.800000,205.991088 L334.400000,205.969440 L336.000000,205.922545 L337.600000,205.851276 L339.200000,205.756543 L340.800000,205.639294 L342.400000,205.500510 L344.000000,205.341199 L345.600000,205.162396 L347.200000,204.965157 L348.800000,204.750555 L350.400000,204.519681 L352.000000,204.273634 L353.600000,204.013524 L355.200000,203.740464 L356.800000,203.455569 L358.400000,203.159955 L360.000000,202.854731 " fill="none" stroke="#7c3aed" stroke-width="2"/>
  <text x="200.000000" y="295.000000" text-anchor="middle" font-size="12" fill="#666">x</text>
<text x="15" y="150.000000" text-anchor="middle" font-size="12" fill="#666" transform="rotate(-90,15,150.000000)">y</text>
</svg>