<svg xmlns="http://www.w3.org/2000/svg" width="400" height="300" viewBox="0 0 400 300">
  <rect width="100%" height="100%" fill="white"/>
  <text x="200" y="20" text-anchor="middle" font-size="14" font-weight="600" fill="#374151" font-family="monospace">tanh activation</text>
  <line x1="40" y1="40" x2="360" y2="40" stroke="#e5e7eb" stroke-dasharray="3,3"/>
<line x1="40" y1="40" x2="40" y2="260" stroke="#e5e7eb" stroke-dasharray="3,3"/>
<line x1="40" y1="95" x2="360" y2="95" stroke="#e5e7eb" stroke-dasharray="3,3"/>
<line x1="120" y1="40" x2="120" y2="260" stroke="#e5e7eb" stroke-dasharray="3,3"/>
<line x1="40" y1="150" x2="360" y2="150" stroke="#e5e7eb" stroke-dasharray="3,3"/>
<line x1="200" y1="40" x2="200" y2="260" stroke="#e5e7eb" stroke-dasharray="3,3"/>
<line x1="40" y1="205" x2="360" y2="205" stroke="#e5e7eb" stroke-dasharray="3,3"/>
<line x1="280" y1="40" x2="280" y2="260" stroke="#e5e7eb" stroke-dasharray="3,3"/>
<line x1="40" y1="260" x2="360" y2="260" stroke="#e5e7eb" stroke-dasharray="3,3"/>
<line x1="360" y1="40" x2="360" y2="260" stroke="#e5e7eb" stroke-dasharray="3,3"/>

  <rect x="40" y="40" width="320" height="220" fill="none" stroke="#d1d5db"/>
  <path d="M40.000000,260.000000 L43.200000,259.844203 L46.400000,259.672275 L49.600000,259.482575 L52.800000,259.273303 L56.000000,259.042483 L59.200000,258.787947 L62.400000,258.507325 L65.600000,258.198019 L68.800000,257.857194 L72.000000,257.481753 L75.200000,257.068317 L78.400000,256.613213 L81.600000,256.112445 L84.800000,255.561679 L88.000000,254.956222 L91.200000,254.291006 L94.400000,253.560569 L97.600000,252.759043 L100.800000,251.880141 L104.000000,250.917155 L107.200000,249.862952 L110.400000,248.709984 L113.600000,247.450302 L116.800000,246.075587 L120.000000,244.577182 L123.200000,242.946156 L126.400000,241.173368 L129.600000,239.249560 L132.800000,237.165470 L136.000000,234.911963 L139.200000,232.480191 L142.400000,229.861772 L145.600000,227.048997 L148.800000,224.035056 L152.000000,220.814284 L155.200000,217.382416 L158.400000,213.736859 L161.600000,209.876947 L164.800000,205.804202 L168.000000,201.522553 L171.200000,197.038534 L174.400000,192.361423 L177.600000,187.503318 L180.800000,182.479144 L184.000000,177.306570 L187.200000,172.005849 L190.400000,166.599550 L193.600000,161.112224 L196.800000,155.569979 L200.000000,150.000000 L203.200000,144.430021 L206.400000,138.887776 L209.600000,133.400450 L212.800000,127.994151 L216.000000,122.693430 L219.200000,117.520856 L222.400000,112.496682 L225.600000,107.638577 L228.800000,102.961466 L232.000000,98.477447 L235.200000,94.195798 L238.400000,90.123053 L241.600000,86.263141 L244.800000,82.617584 L248.000000,79.185716 L251.200000,75.964944 L254.400000,72.951003 L257.600000,70.138228 L260.800000,67.519809 L264.000000,65.088037 L267.200000,62.834530 L270.400000,60.750440 L273.600000,58.826632 L276.800000,57.053844 L280.000000,55.422818 L283.200000,53.924413 L286.400000,52.549698 L289.600000,51.290016 L292.800000,50.137048 L296.000000,49.082845 L299.200000,48.119859 L302.400000,47.240957 L305.600000,46.439431 L308.800000,45.708994 L312.000000,45.043778 L315.200000,44.438321 L318.400000,43.887555 L321.600000,43.386787 L324.800000,42.931683 L328.000000,42.518247 L331.200000,42.142806 L334.400000,41.801981 L337.600000,41.492675 L340.800000,41.212053 L344.000000,40.957517 L347.200000,40.726697 L350.400000,40.517425 L353.600000,40.327725 L356.800000,40.155797 L360.000000,40.000000 " fill="none" stroke="#ea580c" stroke-width="2"/>
  <text x="200.000000" y="295.000000" text-anchor="middle" font-size="12" fill="#666">x</text>
<text x="15" y="150.000000" text-anchor="middle" font-size="12" fill="#666" transform="rotate(-90,15,150.000000)">y</text>
</svg>