<svg xmlns="http://www.w3.org/2000/svg" width="400" height="300" viewBox="0 0 400 300">
  <rect width="100%" height="100%" fill="white"/>
  <text x="200" y="20" text-anchor="middle" font-size="14" font-weight="600" fill="#374151" font-family="monospace">plotMany sin/cos</text>
  <line x1="40" y1="40" x2="360" y2="40" stroke="#e5e7eb" stroke-dasharray="3,3"/>
<line x1="40" y1="40" x2="40" y2="260" stroke="#e5e7eb" stroke-dasharray="3,3"/>
<line x1="40" y1="95" x2="360" y2="95" stroke="#e5e7eb" stroke-dasharray="3,3"/>
<line x1="120" y1="40" x2="120" y2="260" stroke="#e5e7eb" stroke-dasharray="3,3"/>
<line x1="40" y1="150" x2="360" y2="150" stroke="#e5e7eb" stroke-dasharray="3,3"/>
<line x1="200" y1="40" x2="200" y2="260" stroke="#e5e7eb" stroke-dasharray="3,3"/>
<line x1="40" y1="205" x2="360" y2="205" stroke="#e5e7eb" stroke-dasharray="3,3"/>
<line x1="280" y1="40" x2="280" y2="260" stroke="#e5e7eb" stroke-dasharray="3,3"/>
<line x1="40" y1="260" x2="360" y2="260" stroke="#e5e7eb" stroke-dasharray="3,3"/>
<line x1="360" y1="40" x2="360" y2="260" stroke="#e5e7eb" stroke-dasharray="3,3"/>

  <rect x="40" y="40" width="320" height="220" fill="none" stroke="#d1d5db"/>
  <path d="M40.000000,150.000000 L43.200000,143.093043 L46.400000,136.213344 L49.600000,129.388055 L52.800000,122.644112 L56.000000,116.008131 L59.200000,109.506299 L62.400000,103.164278 L65.600000,97.007096 L68.800000,91.059053 L72.000000,85.343622 L75.200000,79.883361 L78.400000,74.699818 L81.600000,69.813451 L84.800000,65.243543 L88.000000,61.008131 L91.200000,57.123928 L94.400000,53.606265 L97.600000,50.469024 L100.800000,47.724587 L104.000000,45.383783 L107.200000,43.455852 L110.400000,41.948402 L113.600000,40.867383 L116.800000,40.217060 L120.000000,40.000000 L123.200000,40.217060 L126.400000,40.867383 L129.600000,41.948402 L132.800000,43.455852 L136.000000,45.383783 L139.200000,47.724587 L142.400000,50.469024 L145.600000,53.606265 L148.800000,57.123928 L152.000000,61.008131 L155.200000,65.243543 L158.400000,69.813451 L161.600000,74.699818 L164.800000,79.883361 L168.000000,85.343622 L171.200000,91.059053 L174.400000,97.007096 L177.600000,103.164278 L180.800000,109.506299 L184.000000,116.008131 L187.200000,122.644112 L190.400000,129.388055 L193.600000,136.213344 L196.800000,143.093043 L200.000000,150.000000 L203.200000,156.906957 L206.400000,163.786656 L209.600000,170.611945 L212.800000,177.355888 L216.000000,183.991869 L219.200000,190.493701 L222.400000,196.835722 L225.600000,202.992904 L228.800000,208.940947 L232.000000,214.656378 L235.200000,220.116639 L238.400000,225.300182 L241.600000,230.186549 L244.800000,234.756457 L248.000000,238.991869 L251.200000,242.876072 L254.400000,246.393735 L257.600000,249.530976 L260.800000,252.275413 L264.000000,254.616217 L267.200000,256.544148 L270.400000,258.051598 L273.600000,259.132617 L276.800000,259.782940 L280.000000,260.000000 L283.200000,259.782940 L286.400000,259.132617 L289.600000,258.051598 L292.800000,256.544148 L296.000000,254.616217 L299.200000,252.275413 L302.400000,249.530976 L305.600000,246.393735 L308.800000,242.876072 L312.000000,238.991869 L315.200000,234.756457 L318.400000,230.186549 L321.600000,225.300182 L324.800000,220.116639 L328.000000,214.656378 L331.200000,208.940947 L334.400000,202.992904 L337.600000,196.835722 L340.800000,190.493701 L344.000000,183.991869 L347.200000,177.355888 L350.400000,170.611945 L353.600000,163.786656 L356.800000,156.906957 L360.000000,150.000000 " fill="none" stroke="#2563eb" stroke-width="2"/>
<path d="M40.000000,40.000000 L43.200000,40.217060 L46.400000,40.867383 L49.600000,41.948402 L52.800000,43.455852 L56.000000,45.383783 L59.200000,47.724587 L62.400000,50.469024 L65.600000,53.606265 L68.800000,57.123928 L72.000000,61.008131 L75.200000,65.243543 L78.400000,69.813451 L81.600000,74.699818 L84.800000,79.883361 L88.000000,85.343622 L91.200000,91.059053 L94.400000,97.007096 L97.600000,103.164278 L100.800000,109.506299 L104.000000,116.008131 L107.200000,122.644112 L110.400000,129.388055 L113.600000,136.213344 L116.800000,143.093043 L120.000000,150.000000 L123.200000,156.906957 L126.400000,163.786656 L129.600000,170.611945 L132.800000,177.355888 L136.000000,183.991869 L139.200000,190.493701 L142.400000,196.835722 L145.600000,202.992904 L148.800000,208.940947 L152.000000,214.656378 L155.200000,220.116639 L158.400000,225.300182 L161.600000,230.186549 L164.800000,234.756457 L168.000000,238.991869 L171.200000,242.876072 L174.400000,246.393735 L177.600000,249.530976 L180.800000,252.275413 L184.000000,254.616217 L187.200000,256.544148 L190.400000,258.051598 L193.600000,259.132617 L196.800000,259.782940 L200.000000,260.000000 L203.200000,259.782940 L206.400000,259.132617 L209.600000,258.051598 L212.800000,256.544148 L216.000000,254.616217 L219.200000,252.275413 L222.400000,249.530976 L225.600000,246.393735 L228.800000,242.876072 L232.000000,238.991869 L235.200000,234.756457 L238.400000,230.186549 L241.600000,225.300182 L244.800000,220.116639 L248.000000,214.656378 L251.200000,208.940947 L254.400000,202.992904 L257.600000,196.835722 L260.800000,190.493701 L264.000000,183.991869 L267.200000,177.355888 L270.400000,170.611945 L273.600000,163.786656 L276.800000,156.906957 L280.000000,150.000000 L283.200000,143.093043 L286.400000,136.213344 L289.600000,129.388055 L292.800000,122.644112 L296.000000,116.008131 L299.200000,109.506299 L302.400000,103.164278 L305.600000,97.007096 L308.800000,91.059053 L312.000000,85.343622 L315.200000,79.883361 L318.400000,74.699818 L321.600000,69.813451 L324.800000,65.243543 L328.000000,61.008131 L331.200000,57.123928 L334.400000,53.606265 L337.600000,50.469024 L340.800000,47.724587 L344.000000,45.383783 L347.200000,43.455852 L350.400000,41.948402 L353.600000,40.867383 L356.800000,40.217060 L360.000000,40.000000 " fill="none" stroke="#dc2626" stroke-width="2"/>

  <rect x="300" y="50" width="12" height="12" fill="#2563eb"/>
<text x="316" y="60" font-size="10" fill="#374151">sin</text>
<rect x="300" y="65" width="12" height="12" fill="#dc2626"/>
<text x="316" y="75" font-size="10" fill="#374151">cos</text>

  <text x="200.000000" y="295.000000" text-anchor="middle" font-size="12" fill="#666">x</text>
<text x="15" y="150.000000" text-anchor="middle" font-size="12" fill="#666" transform="rotate(-90,15,150.000000)">y</text>
</svg>