<svg xmlns="http://www.w3.org/2000/svg" width="400" height="300" viewBox="0 0 400 300">
  <rect width="100%" height="100%" fill="white"/>
  <text x="200" y="20" text-anchor="middle" font-size="14" font-weight="600" fill="#374151" font-family="monospace">#plot (fun x => x^2)</text>
  <line x1="40" y1="40" x2="360" y2="40" stroke="#e5e7eb" stroke-dasharray="3,3"/>
<line x1="40" y1="40" x2="40" y2="260" stroke="#e5e7eb" stroke-dasharray="3,3"/>
<line x1="40" y1="95" x2="360" y2="95" stroke="#e5e7eb" stroke-dasharray="3,3"/>
<line x1="120" y1="40" x2="120" y2="260" stroke="#e5e7eb" stroke-dasharray="3,3"/>
<line x1="40" y1="150" x2="360" y2="150" stroke="#e5e7eb" stroke-dasharray="3,3"/>
<line x1="200" y1="40" x2="200" y2="260" stroke="#e5e7eb" stroke-dasharray="3,3"/>
<line x1="40" y1="205" x2="360" y2="205" stroke="#e5e7eb" stroke-dasharray="3,3"/>
<line x1="280" y1="40" x2="280" y2="260" stroke="#e5e7eb" stroke-dasharray="3,3"/>
<line x1="40" y1="260" x2="360" y2="260" stroke="#e5e7eb" stroke-dasharray="3,3"/>
<line x1="360" y1="40" x2="360" y2="260" stroke="#e5e7eb" stroke-dasharray="3,3"/>

  <rect x="40" y="40" width="320" height="220" fill="none" stroke="#d1d5db"/>
  <path d="M40.000000,260.000000 L41.600000,259.994500 L43.200000,259.978000 L44.800000,259.950500 L46.400000,259.912000 L48.000000,259.862500 L49.600000,259.802000 L51.200000,259.730500 L52.800000,259.648000 L54.400000,259.554500 L56.000000,259.450000 L57.600000,259.334500 L59.200000,259.208000 L60.800000,259.070500 L62.400000,258.922000 L64.000000,258.762500 L65.600000,258.592000 L67.200000,258.410500 L68.800000,258.218000 L70.400000,258.014500 L72.000000,257.800000 L73.600000,257.574500 L75.200000,257.338000 L76.800000,257.090500 L78.400000,256.832000 L80.000000,256.562500 L81.600000,256.282000 L83.200000,255.990500 L84.800000,255.688000 L86.400000,255.374500 L88.000000,255.050000 L89.600000,254.714500 L91.200000,254.368000 L92.800000,254.010500 L94.400000,253.642000 L96.000000,253.262500 L97.600000,252.872000 L99.200000,252.470500 L100.800000,252.058000 L102.400000,251.634500 L104.000000,251.200000 L105.600000,250.754500 L107.200000,250.298000 L108.800000,249.830500 L110.400000,249.352000 L112.000000,248.862500 L113.600000,248.362000 L115.200000,247.850500 L116.800000,247.328000 L118.400000,246.794500 L120.000000,246.250000 L121.600000,245.694500 L123.200000,245.128000 L124.800000,244.550500 L126.400000,243.962000 L128.000000,243.362500 L129.600000,242.752000 L131.200000,242.130500 L132.800000,241.498000 L134.400000,240.854500 L136.000000,240.200000 L137.600000,239.534500 L139.200000,238.858000 L140.800000,238.170500 L142.400000,237.472000 L144.000000,236.762500 L145.600000,236.042000 L147.200000,235.310500 L148.800000,234.568000 L150.400000,233.814500 L152.000000,233.050000 L153.600000,232.274500 L155.200000,231.488000 L156.800000,230.690500 L158.400000,229.882000 L160.000000,229.062500 L161.600000,228.232000 L163.200000,227.390500 L164.800000,226.538000 L166.400000,225.674500 L168.000000,224.800000 L169.600000,223.914500 L171.200000,223.018000 L172.800000,222.110500 L174.400000,221.192000 L176.000000,220.262500 L177.600000,219.322000 L179.200000,218.370500 L180.800000,217.408000 L182.400000,216.434500 L184.000000,215.450000 L185.600000,214.454500 L187.200000,213.448000 L188.800000,212.430500 L190.400000,211.402000 L192.000000,210.362500 L193.600000,209.312000 L195.200000,208.250500 L196.800000,207.178000 L198.400000,206.094500 L200.000000,205.000000 L201.600000,203.894500 L203.200000,202.778000 L204.800000,201.650500 L206.400000,200.512000 L208.000000,199.362500 L209.600000,198.202000 L211.200000,197.030500 L212.800000,195.848000 L214.400000,194.654500 L216.000000,193.450000 L217.600000,192.234500 L219.200000,191.008000 L220.800000,189.770500 L222.400000,188.522000 L224.000000,187.262500 L225.600000,185.992000 L227.200000,184.710500 L228.800000,183.418000 L230.400000,182.114500 L232.000000,180.800000 L233.600000,179.474500 L235.200000,178.138000 L236.800000,176.790500 L238.400000,175.432000 L240.000000,174.062500 L241.600000,172.682000 L243.200000,171.290500 L244.800000,169.888000 L246.400000,168.474500 L248.000000,167.050000 L249.600000,165.614500 L251.200000,164.168000 L252.800000,162.710500 L254.400000,161.242000 L256.000000,159.762500 L257.600000,158.272000 L259.200000,156.770500 L260.800000,155.258000 L262.400000,153.734500 L264.000000,152.200000 L265.600000,150.654500 L267.200000,149.098000 L268.800000,147.530500 L270.400000,145.952000 L272.000000,144.362500 L273.600000,142.762000 L275.200000,141.150500 L276.800000,139.528000 L278.400000,137.894500 L280.000000,136.250000 L281.600000,134.594500 L283.200000,132.928000 L284.800000,131.250500 L286.400000,129.562000 L288.000000,127.862500 L289.600000,126.152000 L291.200000,124.430500 L292.800000,122.698000 L294.400000,120.954500 L296.000000,119.200000 L297.600000,117.434500 L299.200000,115.658000 L300.800000,113.870500 L302.400000,112.072000 L304.000000,110.262500 L305.600000,108.442000 L307.200000,106.610500 L308.800000,104.768000 L310.400000,102.914500 L312.000000,101.050000 L313.600000,99.174500 L315.200000,97.288000 L316.800000,95.390500 L318.400000,93.482000 L320.000000,91.562500 L321.600000,89.632000 L323.200000,87.690500 L324.800000,85.738000 L326.400000,83.774500 L328.000000,81.800000 L329.600000,79.814500 L331.200000,77.818000 L332.800000,75.810500 L334.400000,73.792000 L336.000000,71.762500 L337.600000,69.722000 L339.200000,67.670500 L340.800000,65.608000 L342.400000,63.534500 L344.000000,61.450000 L345.600000,59.354500 L347.200000,57.248000 L348.800000,55.130500 L350.400000,53.002000 L352.000000,50.862500 L353.600000,48.712000 L355.200000,46.550500 L356.800000,44.378000 L358.400000,42.194500 L360.000000,40.000000 " fill="none" stroke="#2563eb" stroke-width="2"/>
  <text x="200.000000" y="295.000000" text-anchor="middle" font-size="12" fill="#666">x</text>
<text x="15" y="150.000000" text-anchor="middle" font-size="12" fill="#666" transform="rotate(-90,15,150.000000)">y</text>
</svg>